# xmcd
#
# Track frame offsets: 
#        150
#        13222
#        27752
#        45860
#        60925
#        74602
#        88512
#        101922
#        119112
#        131287
#        146552
#
# Disc length: 2177 seconds
#
# Revision: 2
# Processed by: cddbd v1.5.1PL2 Copyright (c) Steve Scherf et al.
# Submitted via: ExactAudioCopy v0.95b3
#
DISCID=94087f0b
DTITLE=Sawyer Brown - The Dirt Road
DYEAR=1992
DGENRE=Country
TTITLE0=The Dirt Road
TTITLE1=Some Girls Do
TTITLE2=Another Trip To The Well
TTITLE3=Time And Love
TTITLE4=Ruby Red Shoes
TTITLE5=Fire In The Rain
TTITLE6=Burnin' Bridges (On A Rocky Road)
TTITLE7=Sometimes A Hero
TTITLE8=Ain't That Always The Way
TTITLE9=When Twist Comes To Shout
TTITLE10=The Walk
EXTD=
EXTT0=
EXTT1=
EXTT2=
EXTT3=
EXTT4=
EXTT5=
EXTT6=
EXTT7=
EXTT8=
EXTT9=
EXTT10=
PLAYORDER=
